<svg width="17" height="19" viewBox="0 0 17 19" fill="none" xmlns="http://www.w3.org/2000/svg">
<path d="M2.58894 0.568115C2.42894 0.568115 2.29179 0.590972 2.15465 0.636687C1.26322 0.819544 0.554651 1.52812 0.371794 2.41954C0.303223 2.55669 0.303223 2.69383 0.303223 2.85383V15.4253C0.303223 17.3224 1.83465 18.8538 3.73179 18.8538H16.3032V16.5681H3.73179C3.09179 16.5681 2.58894 16.0653 2.58894 15.4253C2.58894 14.7853 3.09179 14.2824 3.73179 14.2824H16.3032V1.71097C16.3032 1.07097 15.8004 0.568115 15.1604 0.568115H14.0175V7.42526L11.7318 5.13954L9.44608 7.42526V0.568115H2.58894Z" fill="black"/>
</svg>
