<svg width="44" height="44" viewBox="0 0 44 44" fill="none" xmlns="http://www.w3.org/2000/svg">
<path d="M6.875 8.25H4.125C3.36561 8.25 2.75 8.86561 2.75 9.625V38.5C2.75 39.2594 3.36561 39.875 4.125 39.875H6.875C7.63439 39.875 8.25 39.2594 8.25 38.5V9.625C8.25 8.86561 7.63439 8.25 6.875 8.25Z" fill="#FBFBFB" fill-opacity="0.933333" stroke="#353535" stroke-width="1.5" stroke-linejoin="round"/>
<path d="M9.625 19.25H20.625M9.625 34.375H20.625" stroke="#353535" stroke-width="1.5" stroke-linecap="round" stroke-linejoin="round"/>
<path d="M19.25 13.75H11C10.2406 13.75 9.625 14.3656 9.625 15.125V38.5C9.625 39.2594 10.2406 39.875 11 39.875H19.25C20.0094 39.875 20.625 39.2594 20.625 38.5V15.125C20.625 14.3656 20.0094 13.75 19.25 13.75Z" fill="#FBFBFB" fill-opacity="0.933333" stroke="#353535" stroke-width="1.5" stroke-linejoin="round"/>
<rect x="9" y="19" width="11" height="15" fill="#353535"/>
<path d="M28.875 4.125H23.375C22.6156 4.125 22 4.74061 22 5.5V38.5C22 39.2594 22.6156 39.875 23.375 39.875H28.875C29.6344 39.875 30.25 39.2594 30.25 38.5V5.5C30.25 4.74061 29.6344 4.125 28.875 4.125Z" fill="#FBFBFB" fill-opacity="0.933333" stroke="#353535" stroke-width="1.5" stroke-linejoin="round"/>
<path d="M36.305 8.25939L32.8331 8.62463C31.8775 8.72518 31.1848 9.61893 31.2922 10.6098L34.2932 38.2464C34.4015 39.2373 35.2703 39.9652 36.2259 39.8655L39.6978 39.5003C40.6534 39.3997 41.3461 38.506 41.2386 37.5151L38.242 9.88275C38.1294 8.8876 37.2606 8.15885 36.305 8.25939Z" fill="#FBFBFB" fill-opacity="0.933333" stroke="#353535" stroke-width="1.5" stroke-linejoin="round"/>
</svg>
