<svg width="44" height="44" viewBox="0 0 44 44" fill="none" xmlns="http://www.w3.org/2000/svg">
<path d="M9.625 19.25H20.625M9.625 34.375H20.625" stroke="#353535" stroke-width="1.5" stroke-linecap="round" stroke-linejoin="round"/>
<rect x="10" y="19" width="10" height="15" fill="#FBFBFB" fill-opacity="0.933333"/>
<path fill-rule="evenodd" clip-rule="evenodd" d="M28.875 4.125H23.375C22.6156 4.125 22 4.74061 22 5.5V38.5C22 39.2594 22.6156 39.875 23.375 39.875H28.875C29.6344 39.875 30.25 39.2594 30.25 38.5V5.5C30.25 4.74061 29.6344 4.125 28.875 4.125ZM4.125 8.25H6.875C7.63439 8.25 8.25 8.86561 8.25 9.625V38.5C8.25 39.2594 7.63439 39.875 6.875 39.875H4.125C3.36561 39.875 2.75 39.2594 2.75 38.5V9.625C2.75 8.86561 3.36561 8.25 4.125 8.25ZM11 13.75H19.25C20.0094 13.75 20.625 14.3656 20.625 15.125V38.5C20.625 39.2594 20.0094 39.875 19.25 39.875H11C10.2406 39.875 9.625 39.2594 9.625 38.5V15.125C9.625 14.3656 10.2406 13.75 11 13.75ZM32.8331 8.62463L36.305 8.25939C37.2606 8.15885 38.1294 8.8876 38.242 9.88275L41.2386 37.5151C41.3461 38.506 40.6534 39.3997 39.6978 39.5003L36.2259 39.8655C35.2703 39.9652 34.4015 39.2373 34.2932 38.2464L31.2922 10.6098C31.1848 9.61893 31.8775 8.72518 32.8331 8.62463Z" fill="#353535"/>
<path d="M36.305 8.25939L36.3834 9.00528L36.3834 9.00528L36.305 8.25939ZM32.8331 8.62463L32.7546 7.87874L32.7546 7.87875L32.8331 8.62463ZM38.242 9.88275L38.9876 9.80189L38.9872 9.79845L38.242 9.88275ZM41.2386 37.5151L41.9843 37.4343L41.9843 37.4342L41.2386 37.5151ZM39.6978 39.5003L39.7762 40.2461L39.7763 40.2461L39.6978 39.5003ZM36.2259 39.8655L36.3037 40.6114L36.3044 40.6114L36.2259 39.8655ZM34.2932 38.2464L33.5476 38.3274L33.5476 38.3279L34.2932 38.2464ZM31.2922 10.6098L30.5466 10.6906L30.5466 10.6907L31.2922 10.6098ZM23.375 4.875H28.875V3.375H23.375V4.875ZM22.75 5.5C22.75 5.15482 23.0298 4.875 23.375 4.875V3.375C22.2014 3.375 21.25 4.32639 21.25 5.5H22.75ZM22.75 38.5V5.5H21.25V38.5H22.75ZM23.375 39.125C23.0298 39.125 22.75 38.8452 22.75 38.5H21.25C21.25 39.6736 22.2014 40.625 23.375 40.625V39.125ZM28.875 39.125H23.375V40.625H28.875V39.125ZM29.5 38.5C29.5 38.8452 29.2202 39.125 28.875 39.125V40.625C30.0486 40.625 31 39.6736 31 38.5H29.5ZM29.5 5.5V38.5H31V5.5H29.5ZM28.875 4.875C29.2202 4.875 29.5 5.15482 29.5 5.5H31C31 4.32639 30.0486 3.375 28.875 3.375V4.875ZM6.875 7.5H4.125V9H6.875V7.5ZM9 9.625C9 8.45139 8.04861 7.5 6.875 7.5V9C7.22018 9 7.5 9.27982 7.5 9.625H9ZM9 38.5V9.625H7.5V38.5H9ZM6.875 40.625C8.04861 40.625 9 39.6736 9 38.5H7.5C7.5 38.8452 7.22018 39.125 6.875 39.125V40.625ZM4.125 40.625H6.875V39.125H4.125V40.625ZM2 38.5C2 39.6736 2.95139 40.625 4.125 40.625V39.125C3.77982 39.125 3.5 38.8452 3.5 38.5H2ZM2 9.625V38.5H3.5V9.625H2ZM4.125 7.5C2.95139 7.5 2 8.45139 2 9.625H3.5C3.5 9.27982 3.77982 9 4.125 9V7.5ZM19.25 13H11V14.5H19.25V13ZM21.375 15.125C21.375 13.9514 20.4236 13 19.25 13V14.5C19.5952 14.5 19.875 14.7798 19.875 15.125H21.375ZM21.375 38.5V15.125H19.875V38.5H21.375ZM19.25 40.625C20.4236 40.625 21.375 39.6736 21.375 38.5H19.875C19.875 38.8452 19.5952 39.125 19.25 39.125V40.625ZM11 40.625H19.25V39.125H11V40.625ZM8.875 38.5C8.875 39.6736 9.82639 40.625 11 40.625V39.125C10.6548 39.125 10.375 38.8452 10.375 38.5H8.875ZM8.875 15.125V38.5H10.375V15.125H8.875ZM11 13C9.82639 13 8.875 13.9514 8.875 15.125H10.375C10.375 14.7798 10.6548 14.5 11 14.5V13ZM36.2265 7.51351L32.7546 7.87874L32.9116 9.37051L36.3834 9.00528L36.2265 7.51351ZM38.9872 9.79845C38.8317 8.42367 37.6209 7.3668 36.2265 7.51351L36.3834 9.00528C36.9003 8.9509 37.4271 9.35152 37.4968 9.96706L38.9872 9.79845ZM41.9843 37.4342L38.9876 9.80189L37.4964 9.96361L40.493 37.596L41.9843 37.4342ZM39.7763 40.2461C41.1715 40.0993 42.1335 38.8106 41.9843 37.4343L40.493 37.5959C40.5586 38.2013 40.1353 38.7001 39.6193 38.7544L39.7763 40.2461ZM36.3044 40.6114L39.7762 40.2461L39.6193 38.7544L36.1474 39.1196L36.3044 40.6114ZM33.5476 38.3279C33.6979 39.7032 34.9121 40.7566 36.3037 40.6114L36.1481 39.1195C35.6285 39.1737 35.105 38.7714 35.0387 38.165L33.5476 38.3279ZM30.5466 10.6907L33.5476 38.3274L35.0388 38.1655L32.0379 10.5288L30.5466 10.6907ZM32.7546 7.87875C31.3594 8.02555 30.3974 9.31429 30.5466 10.6906L32.0379 10.5289C31.9722 9.92357 32.3955 9.42481 32.9116 9.37051L32.7546 7.87875Z" fill="#FBFBFB" fill-opacity="0.933333"/>
<rect width="10" height="15" transform="translate(10 19)" fill="#FBFBFB" fill-opacity="0.933333"/>
</svg>
